Coordinates
version=1
nRows=8
nColumns=46
inDegrees=yes

Units are S.I. units (second, meters, Newtons, ...)
Angles are in degrees.

endheader
time	pelvis_tilt	pelvis_list	pelvis_rotation	pelvis_tx	pelvis_ty	pelvis_tz	bb_angle	bb_tx	bb_ty	bb_tz	hip_flexion_r	hip_adduction_r	hip_rotation_r	knee_angle_r	knee_angle_r_beta	ankle_angle_r	subtalar_angle_r	mtp_angle_r	crank_angle_r	hip_flexion_l	hip_adduction_l	hip_rotation_l	knee_angle_l	knee_angle_l_beta	ankle_angle_l	subtalar_angle_l	mtp_angle_l	crank_angle_l	lumbar_extension	lumbar_bending	lumbar_rotation	arm_flex_r	arm_add_r	arm_rot_r	elbow_flex_r	pro_sup_r	wrist_flex_r	wrist_dev_r	arm_flex_l	arm_add_l	arm_rot_l	elbow_flex_l	pro_sup_l	wrist_flex_l	wrist_dev_l
      7.50000000	    -31.04434958	      9.11279278	     -0.14798423	      0.34684257	      1.12992783	     -0.28171653	      0.00000000	      0.50000000	      0.00000000	      0.25000000	     43.09475349	    -10.85675872	      3.73239516	     27.94911771	      0.48780413	    -10.84445374	     -9.07495534	      0.00000000	      0.00000000	     73.17951032	      2.56017660	     -1.36733999	    103.73949358	      1.81059573	    -19.22006618	     -9.59434053	      0.00000000	      0.00000000	    -55.01622561	     -7.27260666	     13.22919362	     -3.39912060	    -50.00292786	    -17.11691172	    119.50663252	     51.43156708	      0.00000000	      0.00000000	     49.61417143	    -17.84524832	     33.37559325	     86.29577717	     51.38228993	      0.00000000	      0.00000000
      7.50500000	    -30.81944591	      9.38243220	      0.91425614	      0.34705966	      1.12894040	     -0.28181380	      0.00000000	      0.50000000	      0.00000000	      0.25000000	     41.28057750	    -11.90567637	      2.54149960	     26.29911405	      0.45900613	    -11.72049534	     -8.67699018	      0.00000000	      0.00000000	     74.44695665	      3.36088807	     -1.28424238	    105.18205509	      1.83577318	    -18.61104609	     -9.11342750	      0.00000000	      0.00000000	    -55.12786080	     -7.07222037	     12.23145061	     -3.10895517	    -49.04569164	    -17.18935283	    118.99199460	     51.35839623	      0.00000000	      0.00000000	     50.08548805	    -18.51124395	     34.25622303	     86.36018755	     51.48976797	      0.00000000	      0.00000000
      7.51000000	    -31.00919034	      9.83166117	      1.67680295	      0.34685273	      1.12726769	     -0.28157427	      0.00000000	      0.50000000	      0.00000000	      0.25000000	     40.10307019	    -12.81273324	      1.97328212	     24.88820931	      0.43438120	    -12.27231513	     -8.20235568	      0.00000000	      0.00000000	     76.14159633	      3.82304103	     -1.59051671	    106.53898802	      1.85945612	    -18.08186629	     -9.05146396	      0.00000000	      0.00000000	    -54.83637404	     -7.25392058	     11.40517548	     -3.30374694	    -48.69579480	    -17.16439226	    118.82537504	     51.33890612	      0.00000000	      0.00000000	     50.34520714	    -18.65371407	     34.33346165	     86.40185433	     51.49683440	      0.00000000	      0.00000000
      7.51500000	    -30.94279040	     10.12219043	      2.81397231	      0.34695264	      1.12627819	     -0.28223729	      0.00000000	      0.50000000	      0.00000000	      0.25000000	     38.59246892	    -13.96518186	      0.45387883	     23.67339346	      0.41317866	    -12.79607685	     -7.14453685	      0.00000000	      0.00000000	     77.56353106	      4.71952784	     -1.59976981	    107.72115592	      1.88008884	    -17.54797475	     -8.48940535	      0.00000000	      0.00000000	    -54.85598604	     -6.97822435	     10.17518934	     -2.79689429	    -47.75908259	    -17.12134533	    118.32391631	     51.28239256	      0.00000000	      0.00000000	     50.60095039	    -19.55328470	     35.08792934	     86.84409374	     51.65971856	      0.00000000	      0.00000000
      7.52000000	    -31.05904295	     10.32766621	      3.67594954	      0.34700188	      1.12516078	     -0.28207432	      0.00000000	      0.50000000	      0.00000000	      0.25000000	     37.37120245	    -14.73650214	     -0.64226731	     22.60340577	      0.39450385	    -13.34795489	     -6.54272343	      0.00000000	      0.00000000	     79.12751476	      5.18463946	     -1.68333024	    108.78568460	      1.89866838	    -17.12720571	     -8.18796746	      0.00000000	      0.00000000	    -54.70909785	     -6.97233648	      9.28891656	     -2.74224263	    -47.02436363	    -16.97927285	    117.97957220	     51.25415697	      0.00000000	      0.00000000	     50.76591711	    -19.94863600	     35.29719290	     87.12186683	     51.72707943	      0.00000000	      0.00000000
      7.52500000	    -31.19314914	     10.57971762	      4.24420818	      0.34666088	      1.12422524	     -0.28130515	      0.00000000	      0.50000000	      0.00000000	      0.25000000	     36.39148269	    -15.30225215	     -1.31667913	     21.78077519	      0.38014624	    -13.80845721	     -6.10643250	      0.00000000	      0.00000000	     80.68619567	      5.31751531	     -1.93347492	    109.69456751	      1.91453137	    -16.83960161	     -8.06641132	      0.00000000	      0.00000000	    -54.63369088	     -7.23642156	      8.61221009	     -2.76566580	    -46.62781173	    -16.95985344	    117.88714355	     51.24419672	      0.00000000	      0.00000000	     51.11422328	    -20.01530551	     35.31358722	     87.27987001	     51.74712685	      0.00000000	      0.00000000
      7.53000000	    -31.04648144	     10.66916561	      5.22955408	      0.34690910	      1.12410024	     -0.28144223	      0.00000000	      0.50000000	      0.00000000	      0.25000000	     34.96005407	    -16.08068336	     -2.82163101	     21.06042868	      0.36757382	    -14.26486107	     -4.99100743	      0.00000000	      0.00000000	     81.85436281	      5.96084854	     -1.86073555	    110.37847726	      1.92646785	    -16.43322563	     -7.42515412	      0.00000000	      0.00000000	    -54.89216013	     -6.89783869	      7.61342749	     -2.05357572	    -45.31103897	    -16.88862733	    117.48636264	     51.19703640	      0.00000000	      0.00000000	     51.30138955	    -20.94000423	     35.85034592	     88.09887230	     51.94035467	      0.00000000	      0.00000000
      7.53500000	    -31.17871049	     10.81128230	      5.82397148	      0.34682678	      1.12377296	     -0.28099218	      0.00000000	      0.50000000	      0.00000000	      0.25000000	     34.07729758	    -16.55381485	     -3.52101562	     20.53953831	      0.35848257	    -14.91660397	     -4.48574767	      0.00000000	      0.00000000	     83.26524014	      6.13800105	     -2.03449134	    110.90077549	      1.93558368	    -16.34503463	     -7.24094451	      0.00000000	      0.00000000	    -54.90677248	     -6.98151714	      6.95881509	     -2.06417273	    -44.81685708	    -16.62464932	    117.29966611	     51.20554754	      0.00000000	      0.00000000	     51.43910210	    -21.19978773	     35.95303033	     88.45779072	     52.01099264	      0.00000000	      0.00000000
